<svg width="40" height="40" viewBox="0 0 40 40" fill="none" xmlns="http://www.w3.org/2000/svg">
<path d="M27.6605 28.6242C27.4141 28.6242 27.1683 28.5302 26.9801 28.3424L11.6568 13.0179C11.2811 12.6423 11.2811 12.0331 11.6568 11.6575C12.0328 11.2815 12.6416 11.2815 13.0172 11.6575L28.3406 26.9815C28.7166 27.3575 28.7166 27.9668 28.3406 28.342C28.1527 28.5303 27.9068 28.6242 27.6605 28.6242Z" fill="#F4F4F4"/>
<path d="M12.3372 28.6242C12.0909 28.6242 11.845 28.5302 11.6568 28.3424C11.2811 27.9668 11.2811 27.3575 11.6568 26.9819L26.9801 11.6575C27.3561 11.2815 27.9649 11.2815 28.3405 11.6575C28.7165 12.0331 28.7165 12.6423 28.3405 13.0179L13.0171 28.3424C12.8295 28.5303 12.5832 28.6242 12.3372 28.6242Z" fill="#F4F4F4"/>
<path d="M20.0021 40V39.0379L20.0006 40C8.97312 40 0.000784306 31.0281 0 20.0002C0 8.97194 8.97194 0 19.9998 0C31.0277 0 39.9996 8.97194 39.9996 20.0002C39.9996 31.0285 31.0285 40 20.0021 40ZM19.9998 1.92429C10.0326 1.92429 1.92429 10.033 1.92429 20.0001C1.92508 29.9665 10.0338 38.0756 20.0005 38.0756H20.002C29.9673 38.0756 38.0751 29.9673 38.0751 20.0001C38.0753 10.033 29.9666 1.92429 19.9998 1.92429Z" fill="#F4F4F4"/>
</svg>
