<svg width="16" height="32" viewBox="0 0 16 32" fill="none" xmlns="http://www.w3.org/2000/svg">
<path d="M10.1309 32C7.19054 32 4.79774 29.6082 4.79774 26.6668V9.59994C4.7938 8.74684 5.12486 7.94066 5.72999 7.3323C6.93855 6.11768 9.05699 6.11768 10.2656 7.3323C10.8707 7.94066 11.202 8.74684 11.1979 9.60536V24.5331C11.1979 25.1231 10.7206 25.6001 10.1309 25.6001C9.54161 25.6001 9.06459 25.1231 9.06459 24.5331V9.59994C9.06557 9.30941 8.95492 9.04068 8.754 8.83745C8.34986 8.43323 7.64575 8.43323 7.24161 8.83745C7.04056 9.04068 6.93018 9.30934 6.93117 9.59488V26.6668C6.93117 28.4316 8.3666 29.8669 10.1309 29.8669C11.8956 29.8669 13.331 28.4316 13.331 26.6668V7.46673C13.331 4.52614 10.9386 2.13342 7.99784 2.13342C5.05711 2.13342 2.66432 4.52622 2.66432 7.46673V22.4001C2.66432 22.9897 2.1873 23.4667 1.59779 23.4667C1.00828 23.4667 0.53125 22.9897 0.53125 22.4001V7.46673C0.53132 3.35015 3.88112 0 7.99791 0C12.1147 0 15.4649 3.35015 15.4649 7.46673V26.6668C15.4648 29.6082 13.073 32 10.1309 32Z" fill="#2B427E"/>
</svg>
