<svg width="7" height="7" viewBox="0 0 7 7" fill="none" xmlns="http://www.w3.org/2000/svg">
<path fill-rule="evenodd" clip-rule="evenodd" d="M2.04167 2.33335V3.35419L0.875 4.22919V5.83335L2.04167 5.83335C2.04167 6.15552 2.30283 6.41669 2.625 6.41669H3.20833V6.70835H3.79167V6.41669H4.375C4.69717 6.41669 4.95833 6.15552 4.95833 5.83335L6.125 5.83335V4.22919L4.95833 3.35419V2.33335C4.95833 1.41283 4.40021 0.291687 3.5 0.291687C2.59979 0.291687 2.04167 1.41283 2.04167 2.33335ZM3.79167 5.83335H4.375V2.91669V2.33335C4.375 1.6938 3.9674 0.87502 3.5 0.87502C3.0326 0.87502 2.625 1.6938 2.625 2.33335V2.91669V5.83335H3.20833V4.08335H3.79167V5.83335ZM1.45833 4.52085L2.04167 4.08335V5.25002H1.45833V4.52085ZM4.95833 5.25002V4.08335L5.54167 4.52085V5.25002H4.95833ZM3.5 3.20835C3.17783 3.20835 2.91667 2.94719 2.91667 2.62502C2.91667 2.30285 3.17783 2.04169 3.5 2.04169C3.82217 2.04169 4.08333 2.30285 4.08333 2.62502C4.08333 2.94719 3.82217 3.20835 3.5 3.20835Z" fill="white"/>
</svg>
