<svg width="7" height="7" viewBox="0 0 7 7" fill="none" xmlns="http://www.w3.org/2000/svg">
<path fill-rule="evenodd" clip-rule="evenodd" d="M3.5 6.70835C1.72808 6.70835 0.291664 5.27193 0.291664 3.50002C0.291664 1.72811 1.72808 0.291687 3.5 0.291687C5.27191 0.291687 6.70833 1.72811 6.70833 3.50002C6.70833 5.27193 5.27191 6.70835 3.5 6.70835ZM3.5 6.12502C4.94975 6.12502 6.125 4.94977 6.125 3.50002C6.125 2.05027 4.94975 0.87502 3.5 0.87502C2.05025 0.87502 0.874997 2.05027 0.874997 3.50002C0.874997 4.94977 2.05025 6.12502 3.5 6.12502ZM3.79166 4.37502C3.79166 4.85827 4.18341 5.25002 4.66666 5.25002C5.14991 5.25002 5.54166 4.85827 5.54166 4.37502C5.54166 3.89177 5.14991 3.50002 4.66666 3.50002C4.18341 3.50002 3.79166 3.89177 3.79166 4.37502ZM4.66666 4.66669C4.82775 4.66669 4.95833 4.5361 4.95833 4.37502C4.95833 4.21394 4.82775 4.08335 4.66666 4.08335C4.50558 4.08335 4.375 4.21394 4.375 4.37502C4.375 4.5361 4.50558 4.66669 4.66666 4.66669ZM1.45833 2.62502C1.45833 3.10827 1.85008 3.50002 2.33333 3.50002C2.81658 3.50002 3.20833 3.10827 3.20833 2.62502C3.20833 2.14177 2.81658 1.75002 2.33333 1.75002C1.85008 1.75002 1.45833 2.14177 1.45833 2.62502ZM2.33333 2.91669C2.49441 2.91669 2.625 2.7861 2.625 2.62502C2.625 2.46394 2.49441 2.33335 2.33333 2.33335C2.17225 2.33335 2.04166 2.46394 2.04166 2.62502C2.04166 2.7861 2.17225 2.91669 2.33333 2.91669ZM2.9511 5.25002L4.7011 1.75002H4.04891L2.29891 5.25002H2.9511Z" fill="white"/>
<path d="M4.7011 1.75002L4.8129 1.80592L4.90335 1.62502H4.7011V1.75002ZM2.9511 5.25002V5.37502H3.02835L3.0629 5.30592L2.9511 5.25002ZM4.04891 1.75002V1.62502H3.97166L3.93711 1.69412L4.04891 1.75002ZM2.29891 5.25002L2.18711 5.19412L2.09666 5.37502H2.29891V5.25002ZM0.166664 3.50002C0.166664 5.34097 1.65905 6.83335 3.5 6.83335V6.58335C1.79712 6.58335 0.416664 5.2029 0.416664 3.50002H0.166664ZM3.5 0.166687C1.65905 0.166687 0.166664 1.65907 0.166664 3.50002H0.416664C0.416664 1.79714 1.79712 0.416687 3.5 0.416687V0.166687ZM6.83333 3.50002C6.83333 1.65907 5.34095 0.166687 3.5 0.166687V0.416687C5.20288 0.416687 6.58333 1.79714 6.58333 3.50002H6.83333ZM3.5 6.83335C5.34095 6.83335 6.83333 5.34097 6.83333 3.50002H6.58333C6.58333 5.2029 5.20288 6.58335 3.5 6.58335V6.83335ZM6 3.50002C6 4.88073 4.88071 6.00002 3.5 6.00002V6.25002C5.01878 6.25002 6.25 5.0188 6.25 3.50002H6ZM3.5 1.00002C4.88071 1.00002 6 2.11931 6 3.50002H6.25C6.25 1.98124 5.01878 0.75002 3.5 0.75002V1.00002ZM0.999997 3.50002C0.999997 2.11931 2.11929 1.00002 3.5 1.00002V0.75002C1.98121 0.75002 0.749997 1.98124 0.749997 3.50002H0.999997ZM3.5 6.00002C2.11929 6.00002 0.999997 4.88073 0.999997 3.50002H0.749997C0.749997 5.0188 1.98121 6.25002 3.5 6.25002V6.00002ZM4.66666 5.12502C4.25245 5.12502 3.91666 4.78923 3.91666 4.37502H3.66666C3.66666 4.92731 4.11438 5.37502 4.66666 5.37502V5.12502ZM5.41666 4.37502C5.41666 4.78923 5.08088 5.12502 4.66666 5.12502V5.37502C5.21895 5.37502 5.66666 4.92731 5.66666 4.37502H5.41666ZM4.66666 3.62502C5.08088 3.62502 5.41666 3.96081 5.41666 4.37502H5.66666C5.66666 3.82274 5.21895 3.37502 4.66666 3.37502V3.62502ZM3.91666 4.37502C3.91666 3.96081 4.25245 3.62502 4.66666 3.62502V3.37502C4.11438 3.37502 3.66666 3.82274 3.66666 4.37502H3.91666ZM4.83333 4.37502C4.83333 4.46707 4.75871 4.54169 4.66666 4.54169V4.79169C4.89678 4.79169 5.08333 4.60514 5.08333 4.37502H4.83333ZM4.66666 4.20835C4.75871 4.20835 4.83333 4.28297 4.83333 4.37502H5.08333C5.08333 4.1449 4.89678 3.95835 4.66666 3.95835V4.20835ZM4.5 4.37502C4.5 4.28297 4.57462 4.20835 4.66666 4.20835V3.95835C4.43655 3.95835 4.25 4.1449 4.25 4.37502H4.5ZM4.66666 4.54169C4.57462 4.54169 4.5 4.46707 4.5 4.37502H4.25C4.25 4.60514 4.43655 4.79169 4.66666 4.79169V4.54169ZM2.33333 3.37502C1.91912 3.37502 1.58333 3.03923 1.58333 2.62502H1.33333C1.33333 3.1773 1.78105 3.62502 2.33333 3.62502V3.37502ZM3.08333 2.62502C3.08333 3.03923 2.74754 3.37502 2.33333 3.37502V3.62502C2.88562 3.62502 3.33333 3.1773 3.33333 2.62502H3.08333ZM2.33333 1.87502C2.74754 1.87502 3.08333 2.21081 3.08333 2.62502H3.33333C3.33333 2.07274 2.88562 1.62502 2.33333 1.62502V1.87502ZM1.58333 2.62502C1.58333 2.21081 1.91912 1.87502 2.33333 1.87502V1.62502C1.78105 1.62502 1.33333 2.07274 1.33333 2.62502H1.58333ZM2.5 2.62502C2.5 2.71707 2.42538 2.79169 2.33333 2.79169V3.04169C2.56345 3.04169 2.75 2.85514 2.75 2.62502H2.5ZM2.33333 2.45835C2.42538 2.45835 2.5 2.53297 2.5 2.62502H2.75C2.75 2.3949 2.56345 2.20835 2.33333 2.20835V2.45835ZM2.16666 2.62502C2.16666 2.53297 2.24128 2.45835 2.33333 2.45835V2.20835C2.10321 2.20835 1.91666 2.3949 1.91666 2.62502H2.16666ZM2.33333 2.79169C2.24128 2.79169 2.16666 2.71707 2.16666 2.62502H1.91666C1.91666 2.85514 2.10321 3.04169 2.33333 3.04169V2.79169ZM4.58929 1.69412L2.8393 5.19412L3.0629 5.30592L4.8129 1.80592L4.58929 1.69412ZM4.04891 1.87502H4.7011V1.62502H4.04891V1.87502ZM2.41072 5.30592L4.16072 1.80592L3.93711 1.69412L2.18711 5.19412L2.41072 5.30592ZM2.9511 5.12502H2.29891V5.37502H2.9511V5.12502Z" fill="white"/>
</svg>
