<svg width="8" height="8" viewBox="0 0 8 8" fill="none" xmlns="http://www.w3.org/2000/svg">
<mask id="path-1-outside-1_1_130" maskUnits="userSpaceOnUse" x="0.0851135" y="0.18512" width="8" height="8" fill="black">
<rect fill="white" x="0.0851135" y="0.18512" width="8" height="8"/>
<path fill-rule="evenodd" clip-rule="evenodd" d="M2.54255 4.72356L2.1985 6.72955L3.99999 5.78245L5.80149 6.72955L5.45744 4.72356L6.91488 3.30291L4.90074 3.01023L3.99999 1.18512L3.09925 3.01023L1.08511 3.30291L2.54255 4.72356ZM4.92019 4.549L5.13742 5.81555L3.99999 5.21756L2.86256 5.81555L3.07979 4.549L2.15959 3.65202L3.43128 3.46724L3.99999 2.3149L4.56871 3.46724L5.84039 3.65202L4.92019 4.549Z"/>
</mask>
<path fill-rule="evenodd" clip-rule="evenodd" d="M2.54255 4.72356L2.1985 6.72955L3.99999 5.78245L5.80149 6.72955L5.45744 4.72356L6.91488 3.30291L4.90074 3.01023L3.99999 1.18512L3.09925 3.01023L1.08511 3.30291L2.54255 4.72356ZM4.92019 4.549L5.13742 5.81555L3.99999 5.21756L2.86256 5.81555L3.07979 4.549L2.15959 3.65202L3.43128 3.46724L3.99999 2.3149L4.56871 3.46724L5.84039 3.65202L4.92019 4.549Z" fill="white"/>
<path d="M2.1985 6.72955L1.90282 6.67884L1.80006 7.27796L2.3381 6.99509L2.1985 6.72955ZM2.54255 4.72356L2.83824 4.77427L2.8649 4.61882L2.75196 4.50873L2.54255 4.72356ZM3.99999 5.78245L4.1396 5.51691L3.99999 5.44352L3.86039 5.51691L3.99999 5.78245ZM5.80149 6.72955L5.66189 6.99509L6.19993 7.27796L6.09717 6.67884L5.80149 6.72955ZM5.45744 4.72356L5.24803 4.50873L5.13509 4.61882L5.16175 4.77427L5.45744 4.72356ZM6.91488 3.30291L7.12428 3.51773L7.55956 3.09343L6.95802 3.00602L6.91488 3.30291ZM4.90074 3.01023L4.63172 3.143L4.70152 3.28444L4.8576 3.30712L4.90074 3.01023ZM3.99999 1.18512L4.26902 1.05235L3.99999 0.507254L3.73097 1.05235L3.99999 1.18512ZM3.09925 3.01023L3.14239 3.30712L3.29847 3.28444L3.36827 3.143L3.09925 3.01023ZM1.08511 3.30291L1.04197 3.00602L0.440425 3.09343L0.87571 3.51773L1.08511 3.30291ZM5.13742 5.81555L4.99782 6.08109L5.53586 6.36395L5.4331 5.76483L5.13742 5.81555ZM4.92019 4.549L4.71079 4.33417L4.59785 4.44426L4.62451 4.59971L4.92019 4.549ZM3.99999 5.21756L4.13959 4.95202L3.99999 4.87863L3.86039 4.95202L3.99999 5.21756ZM2.86256 5.81555L2.56688 5.76483L2.46412 6.36395L3.00216 6.08109L2.86256 5.81555ZM3.07979 4.549L3.37547 4.59971L3.40213 4.44426L3.28919 4.33417L3.07979 4.549ZM2.15959 3.65202L2.11645 3.35514L1.5149 3.44255L1.95019 3.86685L2.15959 3.65202ZM3.43128 3.46724L3.47441 3.76412L3.6305 3.74144L3.7003 3.60001L3.43128 3.46724ZM3.99999 2.3149L4.26901 2.18213L3.99999 1.63703L3.73097 2.18213L3.99999 2.3149ZM4.56871 3.46724L4.29969 3.60001L4.36949 3.74144L4.52557 3.76412L4.56871 3.46724ZM5.84039 3.65202L6.0498 3.86685L6.48508 3.44255L5.88353 3.35514L5.84039 3.65202ZM2.49418 6.78027L2.83824 4.77427L2.24687 4.67285L1.90282 6.67884L2.49418 6.78027ZM3.86039 5.51691L2.0589 6.46401L2.3381 6.99509L4.1396 6.04799L3.86039 5.51691ZM5.94109 6.46401L4.1396 5.51691L3.86039 6.04799L5.66189 6.99509L5.94109 6.46401ZM5.16175 4.77427L5.50581 6.78027L6.09717 6.67884L5.75312 4.67285L5.16175 4.77427ZM6.70547 3.08808L5.24803 4.50873L5.66684 4.93838L7.12428 3.51773L6.70547 3.08808ZM4.8576 3.30712L6.87174 3.59979L6.95802 3.00602L4.94388 2.71335L4.8576 3.30712ZM3.73097 1.31789L4.63172 3.143L5.16976 2.87746L4.26902 1.05235L3.73097 1.31789ZM3.36827 3.143L4.26902 1.31789L3.73097 1.05235L2.83023 2.87746L3.36827 3.143ZM1.12825 3.59979L3.14239 3.30712L3.05611 2.71335L1.04197 3.00602L1.12825 3.59979ZM2.75196 4.50873L1.29452 3.08808L0.87571 3.51773L2.33315 4.93838L2.75196 4.50873ZM5.4331 5.76483L5.21587 4.49829L4.62451 4.59971L4.84174 5.86626L5.4331 5.76483ZM3.86039 5.4831L4.99782 6.08109L5.27702 5.55001L4.13959 4.95202L3.86039 5.4831ZM3.00216 6.08109L4.13959 5.4831L3.86039 4.95202L2.72296 5.55001L3.00216 6.08109ZM2.78411 4.49829L2.56688 5.76483L3.15824 5.86626L3.37547 4.59971L2.78411 4.49829ZM1.95019 3.86685L2.87039 4.76382L3.28919 4.33417L2.36899 3.4372L1.95019 3.86685ZM3.38814 3.17036L2.11645 3.35514L2.20273 3.94891L3.47441 3.76412L3.38814 3.17036ZM3.73097 2.18213L3.16225 3.33447L3.7003 3.60001L4.26901 2.44767L3.73097 2.18213ZM4.83773 3.33447L4.26901 2.18213L3.73097 2.44767L4.29969 3.60001L4.83773 3.33447ZM5.88353 3.35514L4.61185 3.17036L4.52557 3.76412L5.79725 3.94891L5.88353 3.35514ZM5.12959 4.76382L6.0498 3.86685L5.63099 3.4372L4.71079 4.33417L5.12959 4.76382Z" fill="white" mask="url(#path-1-outside-1_1_130)"/>
</svg>
